<svg width="32" height="32" viewBox="0 0 32 32" fill="none" xmlns="http://www.w3.org/2000/svg">
  <defs>
    <linearGradient id="ag" x1="21.7" y1="13.8" x2="24.5" y2="15" gradientUnits="userSpaceOnUse">
      <stop stop-color="#6366f1" stop-opacity="0.3"/>
      <stop offset="1" stop-color="#c7d2fe"/>
    </linearGradient>
  </defs>
  <path d="M16 1L3 8.5v15L16 31l13-7.5v-15L16 1z" fill="#0f0a1e"/>
  <path d="M16 1L3 8.5v15L16 16z" fill="#c7d2fe" opacity="0.1"/>
  <path d="M16 31l13-7.5v-15L16 16z" fill="#000" opacity="0.15"/>
  <path d="M16 1L3 8.5v15L16 31l13-7.5v-15L16 1z" fill="none" stroke="#6366f1" stroke-width="0.8" stroke-opacity="0.5"/>
  <path d="M16 3.5L5.5 9.5v13L16 28.5l10.5-6v-13L16 3.5z" fill="none" stroke="#818cf8" stroke-width="0.4" stroke-opacity="0.15"/>
  <circle cx="7" cy="12" r="1.4" fill="#818cf8" opacity="0.6"/>
  <circle cx="25" cy="12" r="1.4" fill="#818cf8" opacity="0.6"/>
  <circle cx="7" cy="21" r="1.4" fill="#6366f1" opacity="0.5"/>
  <circle cx="25" cy="21" r="1.4" fill="#6366f1" opacity="0.5"/>
  <line x1="7" y1="12" x2="14" y2="16" stroke="#818cf8" stroke-width="0.6" opacity="0.4"/>
  <line x1="25" y1="12" x2="18" y2="16" stroke="#818cf8" stroke-width="0.6" opacity="0.4"/>
  <line x1="7" y1="21" x2="14" y2="16" stroke="#6366f1" stroke-width="0.6" opacity="0.3"/>
  <line x1="25" y1="21" x2="18" y2="16" stroke="#6366f1" stroke-width="0.6" opacity="0.3"/>
  <path d="M8 17.5C10 20 13 21.5 16 20" stroke="#a5b4fc" stroke-width="1.2" stroke-linecap="round" opacity="0.3"/>
  <circle cx="16" cy="16" r="5" fill="#6366f1" fill-opacity="0.15"/>
  <circle cx="16" cy="16" r="3.5" fill="#2e1065" opacity="0.85"/>
  <circle cx="16" cy="16" r="2.2" fill="none" stroke="#818cf8" stroke-width="0.4" opacity="0.25"/>
  <path d="M16 12C18.5 10.8 20.5 11.2 22.5 13" stroke="#c7d2fe" stroke-width="0.9" stroke-linecap="round" opacity="0.6"/>
  <path d="M24.5 15L21.7 13.8L23.3 12.2z" fill="url(#ag)" opacity="0.6"/>
</svg>
